<svg xmlns="http://www.w3.org/2000/svg" width="24" height="25" viewBox="0 0 24 25" fill="none">
  <path d="M22.2234 0.390625H1.77187C0.792187 0.390625 0 1.16406 0 2.12031V22.6562C0 23.6125 0.792187 24.3906 1.77187 24.3906H22.2234C23.2031 24.3906 24 23.6125 24 22.6609V2.12031C24 1.16406 23.2031 0.390625 22.2234 0.390625ZM7.12031 20.8422H3.55781V9.38594H7.12031V20.8422ZM5.33906 7.825C4.19531 7.825 3.27188 6.90156 3.27188 5.7625C3.27188 4.62344 4.19531 3.7 5.33906 3.7C6.47813 3.7 7.40156 4.62344 7.40156 5.7625C7.40156 6.89687 6.47813 7.825 5.33906 7.825ZM20.4516 20.8422H16.8937V15.2734C16.8937 13.9469 16.8703 12.2359 15.0422 12.2359C13.1906 12.2359 12.9094 13.6844 12.9094 15.1797V20.8422H9.35625V9.38594H12.7687V10.9516H12.8156C13.2891 10.0516 14.4516 9.1 16.1813 9.1C19.7859 9.1 20.4516 11.4719 20.4516 14.5563V20.8422Z" fill="#85888E"/>
</svg>
