<svg xmlns="http://www.w3.org/2000/svg" width="24" height="18" viewBox="0 0 24 18" fill="none">
  <path d="M23.7609 4.59043C23.7609 4.59043 23.5266 2.93574 22.8047 2.20918C21.8906 1.25293 20.8688 1.24824 20.4 1.19199C17.0438 0.948242 12.0047 0.948242 12.0047 0.948242H11.9953C11.9953 0.948242 6.95625 0.948242 3.6 1.19199C3.13125 1.24824 2.10938 1.25293 1.19531 2.20918C0.473438 2.93574 0.24375 4.59043 0.24375 4.59043C0.24375 4.59043 0 6.53574 0 8.47637V10.2951C0 12.2357 0.239062 14.1811 0.239062 14.1811C0.239062 14.1811 0.473437 15.8357 1.19062 16.5623C2.10469 17.5186 3.30469 17.4857 3.83906 17.5889C5.76094 17.7717 12 17.8279 12 17.8279C12 17.8279 17.0438 17.8186 20.4 17.5795C20.8688 17.5232 21.8906 17.5186 22.8047 16.5623C23.5266 15.8357 23.7609 14.1811 23.7609 14.1811C23.7609 14.1811 24 12.2404 24 10.2951V8.47637C24 6.53574 23.7609 4.59043 23.7609 4.59043ZM9.52031 12.5029V5.75762L16.0031 9.14199L9.52031 12.5029Z" fill="#85888E"/>
</svg>
